HIERARCHY
ROOT wrist
{
	OFFSET 0.00 0.00 0.00
	CHANNELS 6 Xposition Yposition Zposition Xrotation Yrotation Zrotation
	JOINT riHand
	{
		OFFSET -0.04598 0.37556 -0.10882
		CHANNELS 3 Xrotation Yrotation Zrotation
		JOINT RiIndexMP
		{
			OFFSET -1.68547 2.46874 -0.24056
			CHANNELS 2 Zrotation Yrotation
			JOINT RiIndexPIP
			{
				OFFSET -0.10277 1.47086 -0.45732
				CHANNELS 1 Yrotation
				JOINT RiIndexDIP
				{
					OFFSET -0.08662 0.93830 -0.07738
					CHANNELS 1 Yrotation
					End Site
					{
						OFFSET -0.08320 0.90131 -0.07433
					}
				}
			}
		}
		JOINT RiMiddleMP
		{
			OFFSET -0.85407 2.65552 -0.00744
			CHANNELS 2 Zrotation Yrotation
			JOINT RiMiddlePIP
			{
				OFFSET -0.20884 1.70284 -0.28882
				CHANNELS 1 Yrotation
				JOINT RiMiddleDIP
				{
					OFFSET -0.13920 1.15619 -0.27019
					CHANNELS 1 Yrotation
					End Site
					{
						OFFSET -0.12266 1.00992 -0.20553
					}
				}
			}
		}
		JOINT RiRingMP
		{
			OFFSET 0.20418 2.54564 0.23484
			CHANNELS 2 Zrotation Yrotation
			JOINT RiRingPIP
			{
				OFFSET -0.04574 1.65131 -0.34737
				CHANNELS 1 Yrotation
				JOINT RiRingDIP
				{
					OFFSET -0.02985 1.07738 -0.23665
					CHANNELS 1 Yrotation
					End Site
					{
						OFFSET -0.02879 1.03950 -0.21867
					}
				}
			}
		}
		JOINT RiPinkyMP
		{
			OFFSET 0.88895 2.32064 0.25776
			CHANNELS 2 Zrotation Yrotation
			JOINT RiPinkyPIP
			{
				OFFSET 0.43367 1.29723 -0.28031
				CHANNELS 1 Yrotation
				JOINT RiPinkyDIP
				{
					OFFSET 0.23832 0.72354 -0.17269
					CHANNELS 1 Yrotation
					End Site
					{
						OFFSET 0.24280 0.72316 -0.15150
					}
				}
			}
		}
		JOINT RiThumbCMC
		{
			OFFSET -1.27353 -0.34685 -0.51300
			CHANNELS 3 Xrotation Yrotation Zrotation
			JOINT RiThumbMP
			{
				OFFSET -0.97380 1.27673 -0.24634
				CHANNELS 1 Zrotation
				JOINT RiThumbIP
				{
					OFFSET -0.63535 0.77080 -0.10130
					CHANNELS 1 Zrotation
					End Site
					{
						OFFSET -0.66228 0.82323 -0.12448
					}
				}
			}
		}
	}
}
MOTION
Frames: 36
Frame Time: 0.008333
 0.8197 55.9711 -1.5877 174.2040 -31.2110 174.3749 2.0097 3.3875 -1.7797 -21.2147 -20.4344 0.9965 -1.5579 -32.8487 -36.4604 -5.1162 -5.5686 -0.9270 -2.2835 -1.6260 -1.5778 28.7335 36.1906 12.1564 5.8074 -11.7859 -68.1743 -5.3557 -11.1920 -17.9060
 0.8274 56.0462 -1.5780 174.1861 -31.2415 174.7867 2.1074 3.7337 -1.8921 -21.3842 -20.6188 0.9584 -1.5739 -33.8299 -37.4479 -5.1093 -5.5687 -2.0789 -3.4579 -1.6278 -1.5761 28.3244 35.7904 12.1247 5.8613 -12.0496 -68.8036 -5.9099 -11.2806 -18.5717
 0.8319 56.1219 -1.5739 173.8008 -31.2556 174.8209 1.8793 4.0588 -1.9400 -22.2437 -21.5179 0.8273 -1.5355 -34.9354 -38.6296 -5.1321 -5.5708 -2.4521 -3.8431 -1.6241 -1.5921 28.5494 36.0131 12.0736 6.2363 -11.8385 -69.5388 -5.5216 -11.4809 -19.2250
 0.8352 56.1830 -1.5645 173.7597 -31.2826 175.0117 1.9156 4.1977 -1.8947 -22.3832 -21.6488 0.8438 -1.5496 -35.3405 -39.0534 -5.1293 -5.5712 -2.6611 -4.0572 -1.6242 -1.5923 29.1972 36.6499 12.0736 6.1928 -12.0422 -69.5865 -5.8571 -11.5471 -20.0739
 0.8397 56.2401 -1.5584 173.6287 -31.3446 175.1811 1.8487 4.5175 -1.9503 -23.0051 -22.2597 0.8126 -1.5300 -35.6278 -39.3378 -5.1472 -5.5633 -3.2919 -4.7022 -1.6237 -1.5918 29.3862 36.8321 12.1087 5.7219 -12.2823 -70.2533 -6.1394 -11.3786 -20.7537
 0.8427 56.2898 -1.5516 173.5247 -31.3699 175.2643 1.8729 4.7806 -1.8595 -23.4065 -22.6918 0.7535 -1.5071 -36.5231 -40.3042 -5.1739 -5.5560 -4.0321 -5.4599 -1.6208 -1.5935 29.6932 37.1295 12.0979 5.8012 -12.1809 -70.8220 -5.9352 -11.4283 -21.4524
 0.8404 56.3353 -1.5414 173.2805 -31.3751 175.2148 1.6964 4.8229 -1.5769 -23.3915 -22.6676 0.8012 -1.5333 -36.4640 -40.2455 -5.1640 -5.5640 -3.7892 -5.2141 -1.6190 -1.5948 31.0000 38.4121 12.1243 5.7030 -12.0515 -70.7713 -5.8689 -11.6898 -22.4152
 0.8472 56.3705 -1.5346 173.2794 -31.3722 175.4562 1.8442 5.0665 -1.5936 -23.9039 -23.1877 0.7473 -1.5091 -37.1065 -40.8979 -5.1776 -5.5579 -4.5251 -5.9660 -1.6202 -1.5940 30.8191 38.2277 12.1088 5.7478 -12.4508 -71.4283 -6.2885 -11.6360 -23.3178
 0.8510 56.4025 -1.5249 173.2956 -31.3386 175.6342 2.0274 5.1292 -1.3898 -24.1253 -23.3938 0.7537 -1.5050 -37.7501 -41.5868 -5.1945 -5.5451 -4.6033 -6.0476 -1.6178 -1.5956 31.6202 39.0094 12.1196 5.6370 -12.7267 -71.7926 -6.7123 -11.4365 -24.2845
 0.8546 56.4248 -1.5203 173.2636 -31.3170 175.7796 1.9527 5.2866 -1.3782 -24.1201 -23.3360 0.8049 -1.5227 -37.4513 -41.2372 -5.1755 -5.5542 -4.5163 -5.9579 -1.6190 -1.5934 31.4467 38.8436 12.0717 5.8622 -12.6857 -71.9998 -6.7837 -11.6737 -24.6446
 0.8646 56.4469 -1.5104 173.5097 -31.3262 176.1163 2.3987 5.3310 -1.3963 -24.3449 -23.5776 0.8116 -1.5087 -37.5776 -41.3801 -5.1640 -5.5573 -4.6906 -6.1373 -1.6203 -1.5931 31.8152 39.2013 12.0755 5.8228 -12.6506 -72.4130 -6.6944 -11.8189 -25.1927
 0.8694 56.4669 -1.5111 173.2556 -31.3280 176.0493 2.1970 5.5053 -1.4240 -24.4738 -23.7431 0.7592 -1.5021 -37.7728 -41.6169 -5.1846 -5.5553 -5.1576 -6.6148 -1.6189 -1.5941 32.0456 39.4243 12.0836 5.7773 -12.6783 -72.8214 -6.5858 -11.8377 -25.5114
 0.8768 56.4779 -1.5074 173.3684 -31.3892 176.2285 2.3421 5.5333 -1.4205 -24.4971 -23.7570 0.7634 -1.5054 -37.6481 -41.4690 -5.1788 -5.5554 -5.0342 -6.4889 -1.6206 -1.5931 32.0081 39.3856 12.0727 5.8027 -13.1981 -72.9085 -7.3092 -11.6627 -25.9108
 0.8837 56.4865 -1.5086 173.3263 -31.4802 176.2498 2.2771 5.5666 -1.4511 -24.5435 -23.8091 0.7470 -1.5030 -37.5093 -41.3256 -5.1705 -5.5582 -4.8694 -6.3208 -1.6187 -1.5935 32.0932 39.4695 12.0733 5.8186 -12.9788 -73.1978 -7.0108 -11.6887 -26.0840
 0.8865 56.4917 -1.5072 173.2901 -31.5096 176.2088 2.1242 5.5641 -1.2851 -24.3195 -23.5616 0.7860 -1.5255 -37.1644 -40.9569 -5.1571 -5.5641 -4.3422 -5.7817 -1.6195 -1.5929 32.5731 39.9473 12.0748 5.7905 -13.0268 -73.1261 -7.2167 -11.5558 -26.3963
 0.8957 56.4940 -1.5063 173.3810 -31.5699 176.3195 2.2208 5.5886 -1.3461 -24.2276 -23.4812 0.8144 -1.5416 -36.9385 -40.7313 -5.1524 -5.5655 -4.6512 -6.0973 -1.6206 -1.5928 33.0355 40.4058 12.0433 5.9699 -12.5006 -73.3737 -6.5305 -11.6341 -26.6266
 0.9016 56.4931 -1.5090 173.3239 -31.6484 176.3523 2.1022 5.4813 -1.4281 -23.9469 -23.1997 0.8392 -1.5640 -36.4546 -40.2411 -5.1483 -5.5685 -3.5586 -4.9820 -1.6170 -1.5946 33.0055 40.3783 12.0471 5.9853 -12.2325 -73.2813 -6.2751 -11.6143 -26.5976
 0.9074 56.4920 -1.5073 173.3349 -31.6791 176.3792 2.0906 5.6449 -1.3325 -24.1530 -23.3972 0.8008 -1.5597 -36.6109 -40.3880 -5.1433 -5.5722 -4.1607 -5.5967 -1.6180 -1.5930 32.6441 40.0175 12.0387 6.0619 -12.5335 -73.3109 -6.6245 -11.6038 -26.7472
 0.9158 56.4846 -1.5043 173.5265 -31.7290 176.5336 2.3536 5.7133 -1.2591 -24.2528 -23.4776 0.7847 -1.5536 -36.7083 -40.4696 -5.1368 -5.5737 -4.4458 -5.8876 -1.6201 -1.5931 32.0039 39.3818 12.0288 6.0917 -13.0326 -73.3390 -7.2001 -11.3688 -27.0694
 0.9179 56.4771 -1.5031 173.4924 -31.7203 176.4560 2.2588 5.8527 -1.1197 -24.1078 -23.3263 0.7673 -1.5601 -36.6185 -40.3704 -5.1348 -5.5736 -4.5272 -5.9696 -1.6209 -1.5917 32.3206 39.6958 12.0401 6.0060 -12.8936 -73.0942 -7.1646 -11.3867 -27.0659
 0.9245 56.4700 -1.5030 173.4913 -31.7862 176.4897 2.3254 5.8336 -1.2269 -23.8091 -23.0557 0.8053 -1.5925 -36.3212 -40.0852 -5.1311 -5.5767 -4.1728 -5.6080 -1.6171 -1.5931 32.7750 40.1401 12.1101 5.4845 -12.5593 -72.9072 -6.7655 -11.5058 -26.9277
 0.9299 56.4662 -1.5039 173.4024 -31.8632 176.4702 2.2507 6.1462 -1.2618 -24.3351 -23.5950 0.6818 -1.5528 -37.9521 -41.7854 -5.1927 -5.5547 -5.3425 -6.8037 -1.6174 -1.5919 31.8893 39.2577 12.0972 5.6239 -13.4553 -73.2724 -7.6815 -11.1833 -27.0048
 0.9317 56.4580 -1.5019 173.4312 -31.9032 176.4621 2.2081 6.1161 -1.2131 -24.0707 -23.3051 0.7202 -1.5793 -37.5873 -41.3891 -5.1843 -5.5574 -5.1284 -6.5844 -1.6177 -1.5909 32.1485 39.5164 12.1002 5.5905 -13.1894 -72.8872 -7.4115 -11.3424 -26.7786
 0.9370 56.4490 -1.4937 172.7167 -31.2572 176.3815 1.5830 6.7920 -1.4822 -24.1481 -23.3595 0.7138 -1.5743 -37.6312 -41.4081 -5.1804 -5.5571 -5.8344 -7.3048 -1.6183 -1.5898 31.6233 38.9974 12.0827 5.7276 -13.2038 -72.8864 -7.4917 -11.2806 -26.6300
 0.9402 56.4419 -1.4901 172.4974 -31.0382 176.3539 1.3421 7.0139 -1.6558 -24.0237 -23.2242 0.7422 -1.5829 -37.5485 -41.3271 -5.1816 -5.5548 -5.7490 -7.2171 -1.6192 -1.5890 31.5314 38.9088 12.0746 5.7634 -12.9241 -72.7782 -7.1813 -11.3463 -26.4853
 0.9398 56.4360 -1.4912 172.4221 -31.0538 176.2832 1.1737 6.8228 -1.7411 -23.7121 -22.9385 0.6994 -1.5969 -37.0786 -40.8569 -5.1818 -5.5584 -4.9184 -6.3688 -1.6175 -1.5911 32.2989 39.6702 12.0681 5.8470 -12.6402 -72.4925 -6.8320 -11.3150 -26.5994
 0.9402 56.4328 -1.4905 172.4183 -31.0955 176.2518 0.9754 6.9256 -1.7886 -23.9503 -23.1600 0.6736 -1.5875 -36.9800 -40.7156 -5.1692 -5.5680 -5.2971 -6.7552 -1.6182 -1.5894 31.6672 39.0473 12.0392 6.0320 -13.1709 -72.5972 -7.3843 -11.1624 -26.3637
 0.9417 56.4247 -1.4875 172.5424 -31.0750 176.2805 1.0436 6.9694 -1.8479 -24.0123 -23.2185 0.6458 -1.5681 -37.1130 -40.8602 -5.1796 -5.5612 -5.5196 -6.9826 -1.6188 -1.5899 31.1781 38.5621 12.0839 5.7372 -13.5770 -72.4869 -7.8200 -11.0483 -26.2146
 0.9395 56.4211 -1.4841 172.5403 -31.0393 176.2407 0.9281 7.0032 -1.8320 -23.9286 -23.1272 0.6790 -1.5823 -37.1174 -40.8377 -5.1759 -5.5631 -5.6330 -7.0980 -1.6198 -1.5887 31.1308 38.5159 12.0729 5.7535 -13.4584 -72.4035 -7.7226 -11.0471 -26.0199
 0.9355 56.4193 -1.4818 172.4449 -31.0433 176.1307 0.7432 7.0625 -1.8194 -23.9370 -23.1462 0.6418 -1.5858 -37.5718 -41.3055 -5.1863 -5.5627 -6.0844 -7.5594 -1.6185 -1.5880 31.0436 38.4259 12.0839 5.8497 -13.3728 -72.4962 -7.5113 -11.0056 -25.8507
 0.9356 56.4122 -1.4766 172.6308 -31.0632 176.2421 0.9072 7.0750 -1.9111 -23.9081 -23.1172 0.6170 -1.5824 -37.5266 -41.2441 -5.1860 -5.5639 -6.3504 -7.8305 -1.6188 -1.5880 30.7991 38.1888 12.0426 6.1282 -13.6786 -72.3513 -7.8043 -10.9253 -25.5590
 0.9335 56.4083 -1.4707 172.7751 -31.0781 176.2863 1.0311 7.1084 -1.9381 -23.8347 -23.0425 0.5935 -1.5871 -37.4048 -41.1191 -5.1877 -5.5662 -6.7477 -8.2349 -1.6204 -1.5867 30.7653 38.1549 12.0469 6.1239 -13.6275 -72.3836 -7.6261 -10.8820 -25.3224
 0.9309 56.4051 -1.4644 172.9257 -31.0737 176.3471 1.1972 7.1689 -1.9432 -23.8694 -23.0589 0.5660 -1.5716 -37.5083 -41.2336 -5.2031 -5.5576 -6.6530 -8.1392 -1.6202 -1.5870 30.6057 37.9972 12.0449 6.1362 -14.2014 -72.1982 -8.1658 -10.8574 -24.9986
 0.9251 56.3992 -1.4574 173.0021 -31.0924 176.3660 1.2466 7.0765 -1.8562 -23.4472 -22.6059 0.5104 -1.5855 -36.8863 -40.5181 -5.1808 -5.5652 -6.5513 -8.0340 -1.6201 -1.5868 30.5056 37.8972 12.0992 5.7298 -14.6900 -71.6779 -8.8577 -10.7591 -24.6424
 0.9245 56.3941 -1.4512 173.1681 -31.0545 176.5129 1.4948 7.1018 -1.9772 -22.7582 -21.8893 0.4787 -1.6033 -36.4429 -40.0054 -5.1686 -5.5686 -6.5880 -8.0712 -1.6213 -1.5865 29.9741 37.3750 12.0917 5.8557 -15.3523 -71.3761 -9.5842 -10.4700 -24.2517
 0.9183 56.3914 -1.4456 173.1839 -30.9487 176.4679 1.5469 7.1326 -1.9142 -22.4667 -21.5194 0.4697 -1.6064 -35.6764 -39.1708 -5.1567 -5.5721 -6.0442 -7.5160 -1.6215 -1.5873 30.3915 37.7864 12.1078 5.8573 -15.7569 -70.8195 -10.0315 -10.3354 -23.7357
